<mxGraphModel dx="852" dy="494" grid="1" gridSize="10" guides="1" tooltips="1" connect="1" arrows="1" fold="1" page="1" pageScale="1" pageWidth="827" pageHeight="1169" math="0" shadow="0">
  <root>
    <mxCell id="0" />
    <mxCell id="1" parent="0" />
    <mxCell id="4" value="" style="edgeStyle=orthogonalEdgeStyle;rounded=0;orthogonalLoop=1;jettySize=auto;html=1;" parent="1" source="2" target="3" edge="1">
      <mxGeometry relative="1" as="geometry" />
    </mxCell>
    <mxCell id="2" value="Запуск" style="strokeWidth=2;html=1;shape=mxgraph.flowchart.start_1;whiteSpace=wrap;" parent="1" vertex="1">
      <mxGeometry x="350" y="10" width="100" height="40" as="geometry" />
    </mxCell>
    <mxCell id="9" value="" style="edgeStyle=orthogonalEdgeStyle;rounded=0;orthogonalLoop=1;jettySize=auto;html=1;" parent="1" source="3" target="8" edge="1">
      <mxGeometry relative="1" as="geometry" />
    </mxCell>
    <mxCell id="3" value="&lt;div style=&quot;font-family: consolas, &amp;quot;courier new&amp;quot;, monospace; font-size: 14px; line-height: 19px;&quot;&gt;&lt;span style=&quot;&quot;&gt;int&lt;/span&gt; &lt;span style=&quot;&quot;&gt;n,&amp;nbsp;&lt;/span&gt;&lt;span style=&quot;font-family: consolas, &amp;quot;courier new&amp;quot;, monospace;&quot;&gt;space&lt;/span&gt;&lt;span style=&quot;font-family: &amp;quot;consolas&amp;quot; , &amp;quot;courier new&amp;quot; , monospace&quot;&gt; = &lt;/span&gt;&lt;span style=&quot;font-family: consolas, &amp;quot;courier new&amp;quot;, monospace;&quot;&gt;n&lt;/span&gt;&lt;span style=&quot;font-family: &amp;quot;consolas&amp;quot; , &amp;quot;courier new&amp;quot; , monospace&quot;&gt; / &lt;/span&gt;&lt;span style=&quot;font-family: consolas, &amp;quot;courier new&amp;quot;, monospace;&quot;&gt;2&lt;/span&gt;&lt;span style=&quot;font-family: &amp;quot;consolas&amp;quot; , &amp;quot;courier new&amp;quot; , monospace&quot;&gt;, &lt;/span&gt;&lt;span style=&quot;font-family: consolas, &amp;quot;courier new&amp;quot;, monospace;&quot;&gt;star&lt;/span&gt;&lt;span style=&quot;font-family: &amp;quot;consolas&amp;quot; , &amp;quot;courier new&amp;quot; , monospace&quot;&gt; = &lt;/span&gt;&lt;span style=&quot;font-family: consolas, &amp;quot;courier new&amp;quot;, monospace;&quot;&gt;1&lt;/span&gt;&lt;/div&gt;" style="rounded=0;whiteSpace=wrap;html=1;labelBackgroundColor=#ffffff;" parent="1" vertex="1">
      <mxGeometry x="270" y="130" width="260" height="60" as="geometry" />
    </mxCell>
    <mxCell id="5" value="" style="strokeWidth=2;html=1;shape=mxgraph.flowchart.annotation_2;align=left;labelPosition=right;pointerEvents=1;" parent="1" vertex="1">
      <mxGeometry x="500" y="20" width="50" height="100" as="geometry" />
    </mxCell>
    <mxCell id="6" value="" style="endArrow=none;dashed=1;html=1;entryX=0;entryY=0.5;entryDx=0;entryDy=0;entryPerimeter=0;" parent="1" target="5" edge="1">
      <mxGeometry width="50" height="50" relative="1" as="geometry">
        <mxPoint x="400" y="70" as="sourcePoint" />
        <mxPoint x="440" y="380" as="targetPoint" />
      </mxGeometry>
    </mxCell>
    <mxCell id="7" value="&lt;div style=&quot;font-family: consolas, &amp;quot;courier new&amp;quot;, monospace; font-size: 14px; line-height: 19px;&quot;&gt;&lt;div&gt;&lt;span style=&quot;&quot;&gt;#include&lt;/span&gt;&lt;span style=&quot;&quot;&gt; &lt;/span&gt;&lt;span style=&quot;&quot;&gt;&amp;lt;iostream&amp;gt;&lt;/span&gt;&lt;/div&gt;&lt;div&gt;&lt;span style=&quot;&quot;&gt;using&lt;/span&gt; &lt;span style=&quot;&quot;&gt;namespace&lt;/span&gt; &lt;span style=&quot;&quot;&gt;std&lt;/span&gt;;&lt;/div&gt;&lt;div&gt;&lt;span style=&quot;&quot;&gt;int&lt;/span&gt; &lt;span style=&quot;&quot;&gt;main&lt;/span&gt;() &lt;/div&gt;&lt;div&gt;{&lt;/div&gt;&lt;/div&gt;" style="text;html=1;align=center;verticalAlign=middle;resizable=0;points=[];autosize=1;strokeColor=none;labelBackgroundColor=#ffffff;" parent="1" vertex="1">
      <mxGeometry x="530" y="30" width="170" height="80" as="geometry" />
    </mxCell>
    <mxCell id="11" value="" style="edgeStyle=orthogonalEdgeStyle;rounded=0;orthogonalLoop=1;jettySize=auto;html=1;" parent="1" source="8" target="10" edge="1">
      <mxGeometry relative="1" as="geometry" />
    </mxCell>
    <mxCell id="8" value="&lt;div style=&quot;font-family: consolas, &amp;quot;courier new&amp;quot;, monospace; font-size: 14px; line-height: 19px;&quot;&gt;&lt;span style=&quot;&quot;&gt;cout&lt;/span&gt; &lt;span style=&quot;&quot;&gt;&amp;lt;&amp;lt;&lt;/span&gt; &lt;span style=&quot;&quot;&gt;&quot;Введите значение N&quot;&lt;/span&gt; &lt;span style=&quot;&quot;&gt;&amp;lt;&amp;lt;&lt;/span&gt; &lt;span style=&quot;&quot;&gt;endl&lt;/span&gt;;&lt;/div&gt;" style="shape=parallelogram;perimeter=parallelogramPerimeter;whiteSpace=wrap;html=1;fixedSize=1;labelBackgroundColor=#ffffff;" parent="1" vertex="1">
      <mxGeometry x="235" y="220" width="330" height="50" as="geometry" />
    </mxCell>
    <mxCell id="14" value="" style="edgeStyle=orthogonalEdgeStyle;rounded=0;orthogonalLoop=1;jettySize=auto;html=1;" parent="1" source="10" edge="1">
      <mxGeometry relative="1" as="geometry">
        <mxPoint x="400" y="380" as="targetPoint" />
      </mxGeometry>
    </mxCell>
    <mxCell id="10" value="&lt;div style=&quot;font-family: consolas, &amp;quot;courier new&amp;quot;, monospace; font-size: 14px; line-height: 19px;&quot;&gt;&lt;span style=&quot;&quot;&gt;cin&lt;/span&gt; &lt;span style=&quot;&quot;&gt;&amp;gt;&amp;gt;&lt;/span&gt; &lt;span style=&quot;&quot;&gt;n&lt;/span&gt;;&lt;/div&gt;" style="shape=parallelogram;perimeter=parallelogramPerimeter;whiteSpace=wrap;html=1;fixedSize=1;labelBackgroundColor=#ffffff;" parent="1" vertex="1">
      <mxGeometry x="340" y="300" width="120" height="60" as="geometry" />
    </mxCell>
    <mxCell id="16" value="" style="edgeStyle=orthogonalEdgeStyle;rounded=0;orthogonalLoop=1;jettySize=auto;html=1;" parent="1" target="15" edge="1">
      <mxGeometry relative="1" as="geometry">
        <mxPoint x="400" y="450" as="sourcePoint" />
      </mxGeometry>
    </mxCell>
    <mxCell id="45" style="edgeStyle=orthogonalEdgeStyle;rounded=0;orthogonalLoop=1;jettySize=auto;html=1;entryX=0.5;entryY=0;entryDx=0;entryDy=0;" parent="1" target="39" edge="1">
      <mxGeometry relative="1" as="geometry">
        <mxPoint x="160" y="1200" as="targetPoint" />
        <Array as="points">
          <mxPoint x="150" y="415" />
          <mxPoint x="150" y="1170" />
          <mxPoint x="400" y="1170" />
        </Array>
        <mxPoint x="235" y="415" as="sourcePoint" />
      </mxGeometry>
    </mxCell>
    <mxCell id="19" value="" style="edgeStyle=orthogonalEdgeStyle;rounded=0;orthogonalLoop=1;jettySize=auto;html=1;" parent="1" source="15" target="18" edge="1">
      <mxGeometry relative="1" as="geometry" />
    </mxCell>
    <mxCell id="22" style="edgeStyle=orthogonalEdgeStyle;rounded=0;orthogonalLoop=1;jettySize=auto;html=1;entryX=1;entryY=0.5;entryDx=0;entryDy=0;" parent="1" source="15" target="21" edge="1">
      <mxGeometry relative="1" as="geometry">
        <mxPoint x="610" y="760" as="targetPoint" />
        <Array as="points">
          <mxPoint x="610" y="525" />
          <mxPoint x="610" y="720" />
        </Array>
      </mxGeometry>
    </mxCell>
    <mxCell id="15" value="&lt;div style=&quot;font-family: consolas, &amp;quot;courier new&amp;quot;, monospace; font-size: 14px; line-height: 19px;&quot;&gt;&lt;span style=&quot;&quot;&gt;for&lt;/span&gt; (&lt;span style=&quot;&quot;&gt;int&lt;/span&gt; &lt;span style=&quot;&quot;&gt;j&lt;/span&gt; = &lt;span style=&quot;&quot;&gt;1&lt;/span&gt;; &lt;span style=&quot;&quot;&gt;j&lt;/span&gt; &amp;lt;= &lt;span style=&quot;&quot;&gt;space&lt;/span&gt;; &lt;span style=&quot;&quot;&gt;j&lt;/span&gt;++) &lt;/div&gt;" style="shape=hexagon;perimeter=hexagonPerimeter2;whiteSpace=wrap;html=1;fixedSize=1;labelBackgroundColor=#ffffff;" parent="1" vertex="1">
      <mxGeometry x="255" y="490" width="290" height="70" as="geometry" />
    </mxCell>
    <mxCell id="20" style="edgeStyle=orthogonalEdgeStyle;rounded=0;orthogonalLoop=1;jettySize=auto;html=1;entryX=0;entryY=0.5;entryDx=0;entryDy=0;" parent="1" source="18" target="15" edge="1">
      <mxGeometry relative="1" as="geometry">
        <Array as="points">
          <mxPoint x="210" y="630" />
          <mxPoint x="210" y="525" />
        </Array>
      </mxGeometry>
    </mxCell>
    <mxCell id="18" value="&lt;div style=&quot;font-family: consolas, &amp;quot;courier new&amp;quot;, monospace; font-size: 14px; line-height: 19px;&quot;&gt;&lt;span style=&quot;&quot;&gt;cout&lt;/span&gt; &lt;span style=&quot;&quot;&gt;&amp;lt;&amp;lt;&lt;/span&gt; &lt;span style=&quot;&quot;&gt;&quot; &amp;nbsp;&quot;&lt;/span&gt; &lt;span style=&quot;&quot;&gt;&amp;lt;&amp;lt;&lt;/span&gt; &lt;span style=&quot;&quot;&gt;endl&lt;/span&gt;;&lt;/div&gt;" style="shape=parallelogram;perimeter=parallelogramPerimeter;whiteSpace=wrap;html=1;fixedSize=1;labelBackgroundColor=#ffffff;" parent="1" vertex="1">
      <mxGeometry x="300" y="600" width="200" height="60" as="geometry" />
    </mxCell>
    <mxCell id="27" value="" style="edgeStyle=orthogonalEdgeStyle;rounded=0;orthogonalLoop=1;jettySize=auto;html=1;" parent="1" source="21" target="26" edge="1">
      <mxGeometry relative="1" as="geometry" />
    </mxCell>
    <mxCell id="21" value="&lt;div style=&quot;font-family: consolas, &amp;quot;courier new&amp;quot;, monospace; font-size: 14px; line-height: 19px;&quot;&gt;&lt;span style=&quot;&quot;&gt;space&lt;/span&gt;--;&lt;/div&gt;" style="rounded=0;whiteSpace=wrap;html=1;labelBackgroundColor=#ffffff;" parent="1" vertex="1">
      <mxGeometry x="340" y="690" width="120" height="60" as="geometry" />
    </mxCell>
    <mxCell id="29" value="" style="edgeStyle=orthogonalEdgeStyle;rounded=0;orthogonalLoop=1;jettySize=auto;html=1;" parent="1" source="26" edge="1">
      <mxGeometry relative="1" as="geometry">
        <mxPoint x="400" y="900" as="targetPoint" />
      </mxGeometry>
    </mxCell>
    <mxCell id="34" style="edgeStyle=orthogonalEdgeStyle;rounded=0;orthogonalLoop=1;jettySize=auto;html=1;entryX=1;entryY=0.5;entryDx=0;entryDy=0;" parent="1" source="26" target="32" edge="1">
      <mxGeometry relative="1" as="geometry">
        <Array as="points">
          <mxPoint x="580" y="825" />
          <mxPoint x="580" y="1010" />
        </Array>
      </mxGeometry>
    </mxCell>
    <mxCell id="26" value="&lt;div style=&quot;font-family: consolas, &amp;quot;courier new&amp;quot;, monospace; font-size: 14px; line-height: 19px;&quot;&gt;&lt;span style=&quot;&quot;&gt;for&lt;/span&gt; (&lt;span style=&quot;&quot;&gt;int&lt;/span&gt; &lt;span style=&quot;&quot;&gt;j&lt;/span&gt; = &lt;span style=&quot;&quot;&gt;1&lt;/span&gt;; &lt;span style=&quot;&quot;&gt;j&lt;/span&gt; &amp;lt;= &lt;span style=&quot;&quot;&gt;star&lt;/span&gt;; &lt;span style=&quot;&quot;&gt;j&lt;/span&gt;++) &lt;/div&gt;" style="shape=hexagon;perimeter=hexagonPerimeter2;whiteSpace=wrap;html=1;fixedSize=1;labelBackgroundColor=#ffffff;" parent="1" vertex="1">
      <mxGeometry x="265" y="790" width="270" height="70" as="geometry" />
    </mxCell>
    <mxCell id="30" style="edgeStyle=orthogonalEdgeStyle;rounded=0;orthogonalLoop=1;jettySize=auto;html=1;entryX=0;entryY=0.5;entryDx=0;entryDy=0;" parent="1" target="26" edge="1">
      <mxGeometry relative="1" as="geometry">
        <mxPoint x="305" y="930" as="sourcePoint" />
        <Array as="points">
          <mxPoint x="305" y="920" />
          <mxPoint x="210" y="920" />
          <mxPoint x="210" y="825" />
        </Array>
      </mxGeometry>
    </mxCell>
    <mxCell id="31" value="&lt;span style=&quot;font-family: consolas, &amp;quot;courier new&amp;quot;, monospace; font-size: 14px;&quot;&gt;cout&lt;/span&gt;&lt;span style=&quot;font-family: consolas, &amp;quot;courier new&amp;quot;, monospace; font-size: 14px;&quot;&gt;&amp;nbsp;&lt;/span&gt;&lt;span style=&quot;font-family: consolas, &amp;quot;courier new&amp;quot;, monospace; font-size: 14px;&quot;&gt;&amp;lt;&amp;lt;&lt;/span&gt;&lt;span style=&quot;font-family: consolas, &amp;quot;courier new&amp;quot;, monospace; font-size: 14px;&quot;&gt;&amp;nbsp;&lt;/span&gt;&lt;span style=&quot;font-family: consolas, &amp;quot;courier new&amp;quot;, monospace; font-size: 14px;&quot;&gt;&quot;* &quot;&lt;/span&gt;&lt;span style=&quot;font-family: consolas, &amp;quot;courier new&amp;quot;, monospace; font-size: 14px;&quot;&gt;&amp;nbsp;&lt;/span&gt;&lt;span style=&quot;font-family: consolas, &amp;quot;courier new&amp;quot;, monospace; font-size: 14px;&quot;&gt;&amp;lt;&amp;lt;&lt;/span&gt;&lt;span style=&quot;font-family: consolas, &amp;quot;courier new&amp;quot;, monospace; font-size: 14px;&quot;&gt;&amp;nbsp;&lt;/span&gt;&lt;span style=&quot;font-family: consolas, &amp;quot;courier new&amp;quot;, monospace; font-size: 14px;&quot;&gt;endl&lt;/span&gt;&lt;span style=&quot;font-family: consolas, &amp;quot;courier new&amp;quot;, monospace; font-size: 14px;&quot;&gt;;&lt;/span&gt;" style="shape=parallelogram;perimeter=parallelogramPerimeter;whiteSpace=wrap;html=1;fixedSize=1;labelBackgroundColor=#ffffff;" parent="1" vertex="1">
      <mxGeometry x="290" y="900" width="220" height="50" as="geometry" />
    </mxCell>
    <mxCell id="40" value="" style="edgeStyle=orthogonalEdgeStyle;rounded=0;orthogonalLoop=1;jettySize=auto;html=1;" parent="1" source="32" target="38" edge="1">
      <mxGeometry relative="1" as="geometry" />
    </mxCell>
    <mxCell id="32" value="&lt;div style=&quot;font-family: consolas, &amp;quot;courier new&amp;quot;, monospace; font-size: 14px; line-height: 19px;&quot;&gt;&lt;span style=&quot;&quot;&gt;star&lt;/span&gt; += &lt;span style=&quot;&quot;&gt;2&lt;/span&gt;;&lt;/div&gt;" style="rounded=0;whiteSpace=wrap;html=1;labelBackgroundColor=#ffffff;" parent="1" vertex="1">
      <mxGeometry x="340" y="980" width="120" height="60" as="geometry" />
    </mxCell>
    <mxCell id="37" style="edgeStyle=orthogonalEdgeStyle;rounded=0;orthogonalLoop=1;jettySize=auto;html=1;entryX=1;entryY=0.5;entryDx=0;entryDy=0;" parent="1" edge="1">
      <mxGeometry relative="1" as="geometry">
        <mxPoint x="460" y="1090" as="sourcePoint" />
        <mxPoint x="565" y="415" as="targetPoint" />
        <Array as="points">
          <mxPoint x="460" y="1120" />
          <mxPoint x="680" y="1120" />
          <mxPoint x="680" y="415" />
        </Array>
      </mxGeometry>
    </mxCell>
    <mxCell id="38" value="&lt;div style=&quot;font-family: consolas, &amp;quot;courier new&amp;quot;, monospace; font-size: 14px; line-height: 19px;&quot;&gt;&lt;span style=&quot;&quot;&gt;cout&lt;/span&gt; &lt;span style=&quot;&quot;&gt;&amp;lt;&amp;lt;&lt;/span&gt; &lt;span style=&quot;&quot;&gt;endl&lt;/span&gt;;&lt;/div&gt;" style="shape=parallelogram;perimeter=parallelogramPerimeter;whiteSpace=wrap;html=1;fixedSize=1;labelBackgroundColor=#ffffff;" parent="1" vertex="1">
      <mxGeometry x="330" y="1090" width="140" height="60" as="geometry" />
    </mxCell>
    <mxCell id="39" value="Конец" style="ellipse;whiteSpace=wrap;html=1;" parent="1" vertex="1">
      <mxGeometry x="350" y="1210" width="100" height="50" as="geometry" />
    </mxCell>
    <mxCell id="42" value="" style="strokeWidth=2;html=1;shape=mxgraph.flowchart.annotation_2;align=left;labelPosition=right;pointerEvents=1;" parent="1" vertex="1">
      <mxGeometry x="450" y="1160" width="30" height="50" as="geometry" />
    </mxCell>
    <mxCell id="43" value="return 0;" style="text;html=1;align=center;verticalAlign=middle;resizable=0;points=[];autosize=1;strokeColor=none;" parent="1" vertex="1">
      <mxGeometry x="475" y="1175" width="60" height="20" as="geometry" />
    </mxCell>
    <mxCell id="44" value="" style="endArrow=none;dashed=1;html=1;entryX=0;entryY=0.5;entryDx=0;entryDy=0;entryPerimeter=0;" parent="1" target="42" edge="1">
      <mxGeometry width="50" height="50" relative="1" as="geometry">
        <mxPoint x="400" y="1185" as="sourcePoint" />
        <mxPoint x="440" y="1210" as="targetPoint" />
      </mxGeometry>
    </mxCell>
    <mxCell id="LOQgvQWmD6B3VqES4Bch-45" value="for (int i = 1; i &amp;lt;= ((n+1) / 2); i++)" style="shape=hexagon;perimeter=hexagonPerimeter2;whiteSpace=wrap;html=1;fixedSize=1;labelBackgroundColor=#ffffff;fontColor=#000000;" parent="1" vertex="1">
      <mxGeometry x="240" y="380" width="330" height="80" as="geometry" />
    </mxCell>
  </root>
</mxGraphModel>
